<svg viewBox="0 0 64 64" xmlns="http://www.w3.org/2000/svg"><circle cx="24.5" cy="36.5" fill="#ffded5" r="22.5"/><circle cx="4.5" cy="43.5" fill="none" r="2.5" stroke="#4c241d" stroke-linecap="round" stroke-linejoin="round" stroke-width="2"/><path d="m10.027 26-1.074.537a1.779 1.779 0 0 0 -.8 2.387l5.432 10.864a1.778 1.778 0 0 1 .17 1.047l-.279 1.952a1.78 1.78 0 0 0 1.762 2.031 1.778 1.778 0 0 0 .987-.3l2.989-1.993a1.785 1.785 0 0 1 .987-.3h1.568a1.78 1.78 0 0 0 1.779-1.78v-.327a1.78 1.78 0 0 1 1.779-1.779h9.141a1.776 1.776 0 0 1 1.258.521l3.374 3.369v1.3h2.5a1.781 1.781 0 0 1 1.727 1.348l.621 3.78a1.78 1.78 0 0 0 1.717 1.343h2.692a1.781 1.781 0 0 0 1.592-.984l.311-.623a1.78 1.78 0 0 1 1.592-.983h1.753c.639 0 1.228-1.638 1.545-2.192l4.525-7.92a1.759 1.759 0 0 0 .2-.534l1.108-5.539a1.782 1.782 0 0 0 -.2-1.232l-4.513-7.893a1.777 1.777 0 0 0 -.982-.8l-2.161-.72a1.779 1.779 0 0 1 -1.205-1.492l-.415-3.735a1.78 1.78 0 0 0 -.973-1.395l-.741-.37a1.781 1.781 0 0 1 -.984-1.592v-2.796h-1.295l-3.038 5.063a1.779 1.779 0 0 1 -2.322.676l-2.326-1.163a1.78 1.78 0 0 1 -.893-2.154l.027-.08a1.78 1.78 0 0 0 -1.688-2.342h-4.2a1.781 1.781 0 0 0 -1.592.984l-1.46 2.92a1.78 1.78 0 0 1 -2.022.931l-2.621-.655a1.779 1.779 0 0 0 -1.88.692l-5.519 7.721a1.773 1.773 0 0 1 -.652.557l-2.913 1.457" fill="#ffce56" stroke="#4c241d" stroke-linecap="round" stroke-linejoin="round" stroke-width="2"/><circle cx="19.74" cy="51.987" fill="#4c241d" r="1.069"/><g stroke="#4c241d" stroke-linecap="round" stroke-linejoin="round" stroke-width="2"><path d="m31 50v2" fill="none"/><path d="m31 56v2" fill="none"/><path d="m27 54h2" fill="none"/><path d="m33 54h2" fill="none"/><path d="m45.1 54h3.8a.677.677 0 0 1 .606.98l-1.506 4.02-3.51-4.02a.677.677 0 0 1 .61-.98z" fill="#ffce56"/><path d="m15.781 5.326a7.844 7.844 0 0 0 -7.747 7.936c0 4.383 7.747 14.738 7.747 14.738s7.747-10.355 7.747-14.738a7.843 7.843 0 0 0 -7.747-7.936zm0 11.953a4.018 4.018 0 1 1 3.919-4.017 3.97 3.97 0 0 1 -3.919 4.017z" fill="#f96e43"/><path d="m47.781 22.326a7.844 7.844 0 0 0 -7.747 7.936c0 4.383 7.747 14.738 7.747 14.738s7.747-10.355 7.747-14.738a7.843 7.843 0 0 0 -7.747-7.936zm0 11.953a4.018 4.018 0 1 1 3.919-4.017 3.97 3.97 0 0 1 -3.919 4.017z" fill="#a9ba5a"/></g></svg>